<svg width="35" height="32" viewBox="0 0 35 32" fill="none" xmlns="http://www.w3.org/2000/svg">
<rect x="0.5" width="34" height="32" rx="16" fill="#0066CC"/>
<path d="M8.86053 15.7635V16.9638H5.54377V15.7635H8.86053ZM10.1301 20L13.145 14.0341V13.9844H9.6329V12.7273H14.7359V14.0021L11.7174 20H10.1301ZM18.3483 20.0994C17.8464 20.0994 17.3989 20.0071 17.0059 19.8224C16.6153 19.6378 16.3052 19.3833 16.0756 19.0589C15.8459 18.7346 15.7264 18.3629 15.7169 17.9439H17.2084C17.2249 18.2256 17.3433 18.4541 17.5635 18.6293C17.7836 18.8045 18.0452 18.892 18.3483 18.892C18.5898 18.892 18.8028 18.8388 18.9875 18.7322C19.1745 18.6233 19.3201 18.473 19.4243 18.2812C19.5308 18.0871 19.5841 17.8646 19.5841 17.6136C19.5841 17.358 19.5296 17.133 19.4207 16.9389C19.3142 16.7448 19.1662 16.5933 18.9768 16.4844C18.7874 16.3755 18.5708 16.3198 18.327 16.3175C18.1139 16.3175 17.9068 16.3613 17.7055 16.4489C17.5067 16.5365 17.3516 16.656 17.2403 16.8075L15.8731 16.5625L16.2176 12.7273H20.6636V13.9844H17.4854L17.2971 15.8061H17.3398C17.4676 15.6262 17.6605 15.477 17.9186 15.3587C18.1766 15.2403 18.4655 15.1811 18.7851 15.1811C19.223 15.1811 19.6137 15.2841 19.9569 15.4901C20.3002 15.696 20.5713 15.9789 20.7702 16.3388C20.969 16.6963 21.0673 17.1082 21.0649 17.5746C21.0673 18.0646 20.9536 18.5002 20.724 18.8814C20.4967 19.2602 20.1783 19.5585 19.7687 19.7763C19.3615 19.9917 18.8881 20.0994 18.3483 20.0994ZM26.1182 18.6364V18.2528C26.1182 17.9616 26.1797 17.6941 26.3028 17.4503C26.4283 17.2041 26.6094 17.0076 26.8461 16.8608C27.0853 16.7116 27.3765 16.6371 27.7197 16.6371C28.0677 16.6371 28.3601 16.7105 28.5969 16.8572C28.836 17.004 29.0159 17.2005 29.1366 17.4467C29.2597 17.6906 29.3213 17.9593 29.3213 18.2528V18.6364C29.3213 18.9276 29.2597 19.1963 29.1366 19.4425C29.0135 19.6863 28.8324 19.8816 28.5933 20.0284C28.3542 20.1776 28.063 20.2521 27.7197 20.2521C27.3717 20.2521 27.0793 20.1776 26.8426 20.0284C26.6059 19.8816 26.4259 19.6863 26.3028 19.4425C26.1797 19.1963 26.1182 18.9276 26.1182 18.6364ZM27.1515 18.2528V18.6364C27.1515 18.8045 27.1918 18.9631 27.2723 19.1122C27.3551 19.2614 27.5043 19.3359 27.7197 19.3359C27.9352 19.3359 28.0819 19.2625 28.1601 19.1158C28.2406 18.969 28.2808 18.8092 28.2808 18.6364V18.2528C28.2808 18.08 28.2429 17.919 28.1672 17.7699C28.0914 17.6207 27.9423 17.5462 27.7197 17.5462C27.5067 17.5462 27.3587 17.6207 27.2758 17.7699C27.193 17.919 27.1515 18.08 27.1515 18.2528ZM22.3859 14.4744V14.0909C22.3859 13.7973 22.4487 13.5286 22.5741 13.2848C22.6996 13.0386 22.8807 12.8421 23.1175 12.6953C23.3566 12.5485 23.6454 12.4751 23.9839 12.4751C24.3343 12.4751 24.6279 12.5485 24.8646 12.6953C25.1014 12.8421 25.2813 13.0386 25.4044 13.2848C25.5275 13.5286 25.589 13.7973 25.589 14.0909V14.4744C25.589 14.768 25.5263 15.0367 25.4008 15.2805C25.2777 15.5244 25.0966 15.7197 24.8575 15.8665C24.6208 16.0109 24.3296 16.0831 23.9839 16.0831C23.6383 16.0831 23.3459 16.0097 23.1068 15.8629C22.8701 15.7138 22.6901 15.5185 22.567 15.277C22.4463 15.0331 22.3859 14.7656 22.3859 14.4744ZM23.4264 14.0909V14.4744C23.4264 14.6473 23.4666 14.8071 23.5471 14.9538C23.63 15.1006 23.7756 15.174 23.9839 15.174C24.2017 15.174 24.3497 15.1006 24.4278 14.9538C24.5083 14.8071 24.5486 14.6473 24.5486 14.4744V14.0909C24.5486 13.9181 24.5107 13.7571 24.4349 13.608C24.3592 13.4588 24.2088 13.3842 23.9839 13.3842C23.7732 13.3842 23.6276 13.46 23.5471 13.6115C23.4666 13.763 23.4264 13.9228 23.4264 14.0909ZM22.8547 20L27.8547 12.7273H28.7851L23.7851 20H22.8547Z" fill="white"/>
</svg>
